# xmcd CD database file generated by LOLA_Freedb v0.9beta0
# 
# Track frame offsets:
#      150
#      10730
#      21362
#      33530
#      70169
#      82886
#      97978
#      109881
#      120564
#      137667
#      150641
#      183397
# 
# Disc length: 2672 seconds
# 
# Revision: 0 
# Processed by: cddbd v1.5.2PL0 Copyright (c) Steve Scherf et al.
# Submitted via: LOLA_Freedb v0.9beta0
# 
DISCID=910a6e0c
DTITLE=Swamp Dogg - Unmuzzled!
DYEAR=1983
DGENRE=
TTITLE0=Gazelle (Part 1)
TTITLE1=What My Woman Can't Do For Me
TTITLE2=I Lay Awake
TTITLE3=Wonder How I Got Here (Took His Name In Vain)
TTITLE4=The Baby Is Mine
TTITLE5=I've Never Been To Africa
TTITLE6=Barney's Beanery
TTITLE7=Paradoxical (No Bugles)
TTITLE8=I Should Never Have Written This Song
TTITLE9=Eat The Goose (Before The Goose Eats You)
TTITLE10=Call Me Nigger
TTITLE11=Gazelle (Part 2)
EXTD=
EXTT0=
EXTT1=
EXTT2=
EXTT3=
EXTT4=
EXTT5=
EXTT6=
EXTT7=
EXTT8=
EXTT9=
EXTT10=
EXTT11=
PLAYORDER=
